<?xml version="1.0" encoding="utf-8"?>
<!-- Generator: Adobe Illustrator 28.1.0, SVG Export Plug-In . SVG Version: 6.00 Build 0)  -->
<svg version="1.1" id="Layer_1" xmlns="http://www.w3.org/2000/svg" xmlns:xlink="http://www.w3.org/1999/xlink" x="0px" y="0px"
	 viewBox="0 0 1200 1000" style="enable-background:new 0 0 1200 1000;" xml:space="preserve">
<style type="text/css">
	.st0{fill:#FFFFFF;}
	.st1{fill:#129BBA;}
	.st2{fill:#2DADA4;}
</style>
<rect class="st0" width="1200" height="1000"/>
<g>
	<g>
		<g>
			<g>
				<g>
					<g>
						<path class="st1" d="M277.35,747.45c-3.56,0-4.9-3.27-7.31-12.61c-2.51-9.62-6.27-13.38-10.2-14.54
							c-0.68-0.18-0.78-0.28-0.78-0.48c0-0.18,0.1-0.38,0.78-0.58c7.6-2.21,12.22-7.5,12.22-15.01c0-12.23-7.5-17.63-20.51-17.63
							c-3.66,0-7.31,0.2-10.97,0.2c-2.89,0-5.88-0.2-8.76-0.2c-0.96,0-1.55,0.68-1.55,1.93c0,1.16,1.06,5.02,1.06,10.2v40.64
							c0,5.2-1.06,9.06-1.06,10.2c0,1.26,0.86,1.93,3.96,1.93c3.27,0,4.22-0.66,4.22-1.93c0-1.15-1.43-5-1.43-10.2v-14.14
							c0-2.31,0.66-2.99,5.19-2.99c15.61,0,19.36,2.13,23.02,16.37c2.99,11.65,5.58,13.68,9.72,13.68c2.21,0,4.44-1.26,4.44-3.37
							C279.38,747.93,278.7,747.45,277.35,747.45z M237.02,714.61v-19.63c0-2.99,0.48-3.57,14.04-3.57
							c9.44,0,15.02,3.57,15.02,12.91c0,9.32-7.7,13.08-19.73,13.08C238.16,717.4,237.02,716.74,237.02,714.61z"/>
					</g>
				</g>
				<g>
					<g>
						<path class="st1" d="M304.69,702.2c-13.28,0-21.56,9.14-21.56,23.78c0,16.57,8.56,26.29,23,26.29
							c6.37,0,11.55-1.93,15.41-5.78c0.48-0.48,0.78-1.15,0.78-1.93c0-0.58-0.2-1.06-0.68-1.53c-0.38-0.4-0.86-0.58-1.45-0.58
							s-1.06,0.18-2.11,0.86c-3.86,2.51-7.51,3.66-11.65,3.66c-10.3,0-17.33-7.51-17.33-18.88c0-0.38,0.18-0.47,0.48-0.47h33.31
							c1.35,0,2.03-0.78,2.03-2.33C324.92,711.05,317.13,702.2,304.69,702.2z M318.47,722.8h-28.89c-0.3,0-0.48-0.2-0.48-0.48
							c0-8.48,6.17-15.31,15.59-15.31c8.78,0,14.26,5.87,14.26,15.31C318.95,722.61,318.85,722.8,318.47,722.8z"/>
					</g>
				</g>
				<g>
					<g>
						<path class="st1" d="M356.88,702.2c-10.3,0-15.11,7.61-16.27,7.61c-0.28,0-0.38-0.3-0.38-0.78v-27.92
							c0-0.66-0.48-1.06-1.16-1.06c-0.28,0-1.53,0.1-2.88,0.48c-2.03,0.58-3.27,1.36-3.27,2.41c0,2.23,1.63,4.72,1.63,9.92v54.21
							c0,1.73,0.76,2.79,2.03,2.79c1.63,0,2.79-2.89,3.94-2.89c1.16,0,5.3,5.3,14.54,5.3c12.43,0,21.67-10.89,21.67-25.33
							C376.73,712.4,368.53,702.2,356.88,702.2z M355.05,747.45c-8.96,0-14.83-7.03-14.83-10.02V725.4
							c0-10.39,7.03-18.38,16.27-18.38c8.48,0,14.24,7.51,14.24,19.06C370.74,739.46,364.78,747.45,355.05,747.45z"/>
					</g>
				</g>
				<g>
					<g>
						<path class="st1" d="M424.19,747.45c-1.65,0-2.31-0.58-2.31-3.47v-22.72c0-12.03-6.37-19.06-17.33-19.06
							c-5.48,0-9.44,1.35-13.38,3.86c-2.51,1.63-4.24,3.56-4.24,5.2c0,1.63,1.15,2.59,2.79,2.59c3.84,0,5-6.83,14.83-6.83
							c7.7,0,11.65,4.9,11.65,14.24c0,1.55-0.38,2.31-1.93,2.31h-9.06c-13.28,0-21.27,5.4-21.27,14.74
							c0,7.98,6.75,13.96,15.02,13.96c4.34,0,8.66-1.26,11.93-3.96c3.86-3.07,4.14-3.17,4.62-3.17c0.4,0,0.68,0.28,0.68,1.15
							c0,3.86,2.31,5.98,5.78,5.98c2.21,0,4.22-0.86,4.22-2.99C426.2,748.22,425.54,747.45,424.19,747.45z M416.2,731.38
							c0,8.18-7.99,16.07-16.27,16.07c-5.68,0-10.02-3.47-10.02-9.24c0-7.23,4.72-9.82,16.27-9.82h8.09c1.35,0,1.93,0.66,1.93,1.93
							V731.38z"/>
					</g>
				</g>
				<g>
					<g>
						<path class="st1" d="M440.85,739.36v-58.25c0-0.66-0.48-1.06-1.16-1.06c-0.28,0-1.53,0.1-2.88,0.48
							c-2.03,0.58-3.29,1.36-3.29,2.41c0,2.23,1.65,4.72,1.65,9.92v46.5c0,5.2-1.06,9.06-1.06,10.2c0,1.26,1.06,1.93,3.86,1.93
							c2.89,0,3.96-0.66,3.96-1.93C441.91,748.42,440.85,744.56,440.85,739.36z"/>
					</g>
				</g>
				<g>
					<g>
						<path class="st1" d="M492.93,747.45c-1.63,0-2.31-0.58-2.31-3.47v-22.72c0-12.03-6.35-19.06-17.33-19.06
							c-5.48,0-9.44,1.35-13.38,3.86c-2.51,1.63-4.24,3.56-4.24,5.2c0,1.63,1.15,2.59,2.79,2.59c3.86,0,5-6.83,14.83-6.83
							c7.71,0,11.65,4.9,11.65,14.24c0,1.55-0.38,2.31-1.93,2.31h-9.04c-13.3,0-21.29,5.4-21.29,14.74
							c0,7.98,6.75,13.96,15.02,13.96c4.34,0,8.68-1.26,11.95-3.96c3.84-3.07,4.14-3.17,4.62-3.17c0.38,0,0.66,0.28,0.66,1.15
							c0,3.86,2.31,5.98,5.78,5.98c2.21,0,4.24-0.86,4.24-2.99C494.96,748.22,494.28,747.45,492.93,747.45z M484.94,731.38
							c0,8.18-7.99,16.07-16.27,16.07c-5.68,0-10.01-3.47-10.01-9.24c0-7.23,4.7-9.82,16.27-9.82h8.08c1.35,0,1.93,0.66,1.93,1.93
							V731.38z"/>
					</g>
				</g>
				<g>
					<g>
						<path class="st1" d="M540.78,739.36v-17.52c0-12.33-4.72-19.65-15.41-19.65c-8.96,0-13.66,8.28-14.73,8.28
							c-0.48,0-0.86-0.18-0.86-2.01v-5.2c0-0.68-0.48-1.06-1.16-1.06c-0.28,0-1.55,0.1-2.89,0.48c-2.01,0.58-3.27,1.35-3.27,2.41
							c0,2.21,1.65,4.72,1.65,9.92v24.35c0,5.2-1.06,9.06-1.06,10.2c0,1.26,1.06,1.93,3.86,1.93c3.37,0,4.34-0.66,4.34-1.93
							c0-1.15-1.45-5-1.45-10.2V725.4c0-9.52,7.11-18.38,14.63-18.38c7.89,0,10.69,5,10.69,14.92v17.42c0,5.2-1.45,9.06-1.45,10.2
							c0,1.26,0.96,1.93,4.34,1.93c2.79,0,3.86-0.66,3.86-1.93C541.85,748.42,540.78,744.56,540.78,739.36z"/>
					</g>
				</g>
				<g>
					<g>
						<path class="st1" d="M573.81,707.02c6.55,0,11.27,3.94,11.27,9.72c0,1.93,1.16,3.17,3.07,3.17c1.75,0,2.99-1.15,2.99-2.69
							c0-8.86-7.21-15.02-17.33-15.02c-13.28,0-23.2,10.5-23.2,24.85c0,15.02,9.44,25.23,23.2,25.23c6.37,0,11.55-1.93,15.41-5.78
							c0.48-0.48,0.78-1.15,0.78-1.93c0-0.58-0.2-1.06-0.68-1.53c-0.38-0.4-0.86-0.58-1.45-0.58c-0.58,0-1.06,0.18-2.11,0.86
							c-3.86,2.51-7.51,3.66-11.65,3.66c-10.4,0-17.53-8.09-17.53-19.93C556.57,715.19,563.7,707.02,573.81,707.02z"/>
					</g>
				</g>
				<g>
					<g>
						<path class="st1" d="M619.74,702.2c-13.3,0-21.57,9.14-21.57,23.78c0,16.57,8.56,26.29,23,26.29c6.37,0,11.57-1.93,15.41-5.78
							c0.48-0.48,0.78-1.15,0.78-1.93c0-0.58-0.2-1.06-0.68-1.53c-0.38-0.4-0.86-0.58-1.45-0.58c-0.57,0-1.05,0.18-2.11,0.86
							c-3.86,2.51-7.51,3.66-11.65,3.66c-10.3,0-17.33-7.51-17.33-18.88c0-0.38,0.2-0.47,0.48-0.47h33.31
							c1.36,0,2.03-0.78,2.03-2.33C639.95,711.05,632.16,702.2,619.74,702.2z M633.51,722.8h-28.89c-0.28,0-0.48-0.2-0.48-0.48
							c0-8.48,6.17-15.31,15.61-15.31c8.76,0,14.24,5.87,14.24,15.31C633.99,722.61,633.89,722.8,633.51,722.8z"/>
					</g>
				</g>
				<g>
					<g>
						<path class="st2" d="M717.37,739.56l-19.74-51.04c-0.48-1.25-1.15-1.93-3.46-1.93c-1.75,0-2.89,0.4-3.47,1.93l-19.74,51.04
							c-2.79,7.21-4.8,8.28-4.8,9.82c0,1.93,0.86,2.11,3.94,2.11c3.37,0,4.44-0.18,4.44-2.11c0-0.86-0.1-1.73-0.1-2.31
							c0-2.41,1.35-5.68,4.9-15.31c0.4-1.16,0.88-2.03,2.41-2.03h24.65c1.06,0,1.65,0.68,1.83,1.25
							c3.57,10.69,5.02,14.74,5.02,16.09c0,0.66-0.1,1.45-0.1,2.31c0,1.93,0.76,2.11,4.42,2.11c3.57,0,4.64-0.18,4.64-2.11
							C722.19,747.83,720.16,746.77,717.37,739.56z M704.56,724.92H683c-0.48,0-0.68-0.18-0.68-0.66c0-0.48,0.68-2.13,5.2-14.06
							c5.58-14.73,5.87-15.02,6.25-15.02c0.3,0,0.68,0.3,6.17,14.44c5,12.9,5.4,14.06,5.4,14.64
							C705.34,724.73,705.04,724.92,704.56,724.92z"/>
					</g>
				</g>
				<g>
					<g>
						<path class="st2" d="M797.2,739.36v-17.52c0-12.33-5.02-19.65-14.74-19.65c-10.79,0-14.34,10.79-15.41,10.79
							c-0.28,0-0.48-0.38-0.76-1.16c-2.31-6.45-6.75-9.62-13.38-9.62c-8.09,0-12.81,8.28-13.78,8.28c-0.68,0-0.86-0.38-0.86-2.01
							v-5.2c0-0.68-0.48-1.06-1.16-1.06c-0.28,0-1.53,0.1-2.88,0.48c-2.03,0.58-3.27,1.35-3.27,2.41c0,2.21,1.63,4.72,1.63,9.92
							v24.35c0,5.2-1.06,9.06-1.06,10.2c0,1.26,1.06,1.93,3.86,1.93c3.37,0,4.34-0.66,4.34-1.93c0-1.15-1.45-5-1.45-10.2v-13.1
							c0-9.82,6.83-19.25,13.68-19.25c7.03,0,10.1,5,10.1,14.92v17.42c0,5.2-1.45,9.06-1.45,10.2c0,1.26,0.96,1.93,4.24,1.93
							c3.37,0,4.34-0.66,4.34-1.93c0-1.15-1.45-5-1.45-10.2v-13.1c0-9.82,6.93-19.25,13.76-19.25c6.93,0,10.02,5,10.02,14.92v17.42
							c0,5.2-1.45,9.06-1.45,10.2c0,1.26,0.96,1.93,4.34,1.93c2.79,0,3.84-0.66,3.84-1.93C798.25,748.42,797.2,744.56,797.2,739.36z
							"/>
					</g>
				</g>
				<g>
					<g>
						<path class="st2" d="M846.68,747.45c-1.63,0-2.31-0.58-2.31-3.47v-22.72c0-12.03-6.35-19.06-17.33-19.06
							c-5.48,0-9.42,1.35-13.38,3.86c-2.51,1.63-4.24,3.56-4.24,5.2c0,1.63,1.16,2.59,2.79,2.59c3.86,0,5-6.83,14.83-6.83
							c7.71,0,11.65,4.9,11.65,14.24c0,1.55-0.38,2.31-1.93,2.31h-9.04c-13.3,0-21.29,5.4-21.29,14.74
							c0,7.98,6.75,13.96,15.02,13.96c4.34,0,8.68-1.26,11.95-3.96c3.84-3.07,4.14-3.17,4.62-3.17c0.38,0,0.66,0.28,0.66,1.15
							c0,3.86,2.31,5.98,5.78,5.98c2.21,0,4.24-0.86,4.24-2.99C848.7,748.22,848.02,747.45,846.68,747.45z M838.68,731.38
							c0,8.18-7.99,16.07-16.27,16.07c-5.68,0-10.01-3.47-10.01-9.24c0-7.23,4.72-9.82,16.27-9.82h8.08c1.36,0,1.93,0.66,1.93,1.93
							V731.38z"/>
					</g>
				</g>
				<g>
					<g>
						<path class="st2" d="M877.29,745.14c-0.38,0-0.86,0.2-1.45,0.48c-2.97,1.55-3.66,1.83-5.48,1.83c-3.66,0-5.58-2.99-5.58-8.66
							v-28.32c0-2.01,0.3-2.49,2.03-2.49h7.89c1.45,0,2.11-0.96,2.11-2.41c0-1.83-0.76-2.41-2.11-2.41h-7.89
							c-1.73,0-2.03-0.48-2.03-2.51v-3.56c0-1.45-0.58-1.93-1.63-1.93c-2.31,0-3.09,5.3-9.34,9.16c-1.93,1.15-2.51,1.73-2.51,2.49
							c0,0.68,0.38,1.16,1.16,1.16h4.62c1.73,0,2.01,0.48,2.01,2.49v28.32c0,8.94,3.76,13.48,11.27,13.48
							c3.09,0,6.17-1.35,8.28-3.76c0.4-0.48,0.58-0.96,0.58-1.45C879.22,745.91,878.45,745.14,877.29,745.14z"/>
					</g>
				</g>
				<g>
					<g>
						<path class="st2" d="M906.58,724.43c-10.6-2.69-14.06-4.9-14.06-9.24c0-5,4.32-8.18,11.07-8.18c4.34,0,7.13,1.15,11.75,4.62
							c1.53,1.15,1.93,1.73,2.59,1.73c0.86,0,1.45-0.28,1.45-1.25c0-1.26-0.66-3.47-1.73-5.4c-1.55-2.88-2.31-3.27-3.17-3.27
							c-0.58,0-1.35,0.1-1.83,0.1c-1.16,0-5.02-1.35-9.06-1.35c-9.44,0-16.75,5.68-16.75,13c0,7.23,3.94,10.89,14.73,13.68
							c10.99,2.89,13.88,4.9,13.88,9.52c0,5.5-4.54,9.06-11.37,9.06c-5.68,0-9.82-2.59-14.06-6.55c-1.45-1.35-1.93-1.63-2.59-1.63
							c-0.88,0-1.45,0.28-1.45,1.25c0,1.15,0.66,4.14,1.73,6.25c0.76,1.55,1.55,2.71,2.41,2.71c0.58,0,1.35-0.1,1.83-0.1
							c1.15,0,6.75,2.89,12.13,2.89c9.82,0,17.04-5.98,17.04-14.16C921.1,730.88,917.16,727.14,906.58,724.43z"/>
					</g>
				</g>
				<g>
					<g>
						<path class="st2" d="M967.52,738.01v-33.89c0-0.96-0.78-1.16-2.79-1.16c-3.37,0-4.34,0.68-4.34,1.93
							c0,1.16,1.45,5.02,1.45,10.2v13.96c0,9.54-7.03,18.4-14.44,18.4c-7.71,0-10.89-5-10.89-14.92v-28.4
							c0-0.96-0.76-1.16-2.89-1.16c-2.79,0-3.84,0.68-3.84,1.93c0,1.16,1.05,5.02,1.05,10.2v17.53c0,12.32,5.1,19.65,15.61,19.65
							c8.86,0,13.48-7.61,15.11-7.61c0.4,0,0.78,0.2,0.78,5.78c0,1.25,0.48,1.83,1.25,1.83c0.76,0,1.35-0.1,3.17-0.78
							c2.61-0.96,2.99-1.35,2.99-2.59C969.73,747.25,967.52,744.28,967.52,738.01z"/>
					</g>
				</g>
			</g>
		</g>
	</g>
	<g>
		<g>
			<g>
				<g>
					<path class="st2" d="M844.07,614.68c5.9,59.51-32.97,39-65.05,18.2c-29.23-22.88-74.87-31.83-107.26-9.2
						c36.31-12.12,71.03-4.03,100.77,19.49c19.15,12.41,69.24,38.61,75.7-0.38C848.86,632.81,847.02,623.53,844.07,614.68z"/>
					<path class="st1" d="M717.97,591.47c23.1-15.22,51.07-34.07,78.69-23.53c33.4,12.66,23.23,44.13,3.91,66.4
						c11.86-8.98,25.38-19.42,27.76-37.49c1.87-18.33-11.56-34.16-27.41-40.3C768.2,545.28,736.7,566.86,717.97,591.47z"/>
					<path class="st2" d="M351.65,626.9c106.75-48.33,223.36,71.15,317.17-19.16C567.95,681.34,455,560.88,351.65,626.9z"/>
					<path class="st1" d="M501.11,560.67c-51.63-11.87-103.68,6.32-149.47,31.51c42.42-31.83,98.42-54.31,152.4-42.18
						c34.08,11.1,62.97,30.43,99.01,17.02c32.33-8.31,70.12-42.72,102.11-15.3c13.13,12.01,33.02,5.81,46.41-5.36
						c-6.18,6.31-13.48,12.07-22.49,14.64c-8.86,2.9-19.5,0.89-27.24-4.3c-13.7-11.5-31.48-8.34-46.69-1.14
						c-29.38,15.84-66.51,35.14-104.57,24.59C532.47,574.78,517.23,565.23,501.11,560.67z"/>
					<circle class="st1" cx="383.14" cy="595.35" r="3.18"/>
					<ellipse class="st2" cx="417.03" cy="586.59" rx="5.37" ry="5.36"/>
					<circle class="st1" cx="451.92" cy="583.84" r="7.1"/>
					<path class="st2" d="M478.76,586.88c0,4.48,3.63,8.11,8.11,8.11c4.47,0,8.1-3.63,8.1-8.11c0-4.48-3.63-8.11-8.1-8.11
						C482.39,578.77,478.76,582.4,478.76,586.88z"/>
					<circle class="st1" cx="520.96" cy="595.22" r="8.55"/>
					<ellipse class="st2" cx="554.9" cy="603.99" rx="8.56" ry="8.56"/>
					<circle class="st1" cx="589.95" cy="605.71" r="8.13"/>
					<path class="st2" d="M617.88,602.82c0,3.94,3.19,7.13,7.13,7.13c3.94,0,7.13-3.19,7.13-7.13c0-3.94-3.19-7.13-7.13-7.13
						C621.07,595.69,617.88,598.88,617.88,602.82z"/>
					<path class="st1" d="M652.29,590.7c0,2.98,2.41,5.39,5.39,5.39c2.98,0,5.39-2.41,5.39-5.39c0-2.98-2.41-5.39-5.39-5.39
						C654.7,585.31,652.29,587.72,652.29,590.7z"/>
					<path class="st2" d="M685.52,581.03c0,1.77,1.43,3.2,3.2,3.2c1.77,0,3.2-1.43,3.2-3.2c0-1.77-1.43-3.2-3.2-3.2
						C686.95,577.83,685.52,579.26,685.52,581.03z"/>
					<path class="st2" d="M581.82,459.43c-4.4,39.73,31.16,73.35,67.83,80.26C617.69,520.31,590.53,497.38,581.82,459.43z"/>
					<path class="st1" d="M575.97,492.54c-0.31-24.48-5.86-66.14-39.9-65.33c30.41,7.29,30.26,37.92,31.21,64.1
						c0.07,1.94,0.26,3.88,0.62,5.79c5.27,28.02,29.71,48.02,55.66,56.37C601.09,539.17,578.98,520.11,575.97,492.54z"/>
					<path class="st2" d="M475.24,537.75c48.26-13.77,4.72-92.67,54.27-105.54C471.34,434.17,512.66,516.06,475.24,537.75z"/>
					<path class="st1" d="M531.23,418.53c7-6.87,16.54-10.33,22.95-19.03c5.89-8.99,7.29-18.86,10.78-27.88
						c3.3-18.15,24.36-30.33,39.21-23.33c15.2,7.22,21.93,29.52,17.3,45.92c-6.29,16.67-24.89,27.63-41.66,36.66
						c18.04-6.38,38.4-14.07,48.06-34.34c6.99-20.16-0.31-45.67-19.97-56.04c-22.16-9.24-46.61,8.5-49.28,29.25
						C554.4,394.26,549.05,402.01,531.23,418.53z"/>
				</g>
			</g>
		</g>
		<g>
			<g>
				<g>
					<path class="st1" d="M383.67,447.27c-1.09-15.95-0.33-30.07,1.79-44.18c-1.37,7.45-2.01,15.05-2.5,22.55
						c-0.23,7.51-0.29,14.94,0.32,22.11c1.02,14.35,3.7,27.62,7.01,38.59C386.71,473.67,384.47,460.56,383.67,447.27z"/>
				</g>
				<g>
					<path class="st1" d="M409.68,336.37c-1.45,2.06-2.6,4.25-3.85,6.31c-0.61,1.04-1.21,2.07-1.81,3.09
						c-0.6,1.02-1.09,2.08-1.63,3.11c-1.05,2.07-2.07,4.1-3.08,6.09c-0.9,2.04-1.79,4.05-2.66,6.03c-0.9,1.96-1.64,3.96-2.37,5.93
						c-0.72,1.97-1.48,3.89-2.13,5.83c-1.18,3.92-2.52,7.69-3.4,11.54c4.24-15.48,10.75-30.23,18.75-43.98
						C408.18,338.99,408.93,337.6,409.68,336.37z"/>
				</g>
				<g>
					<path class="st1" d="M399.64,356.28c-0.94,2.09-1.86,4.14-2.77,6.16c-0.93,2.01-1.61,4.07-2.4,6.05
						c-1.61,3.96-2.75,7.94-3.99,11.78c-2.19,7.77-3.94,15.27-5.02,22.82C388.2,386.16,393.61,370.1,399.64,356.28z"/>
				</g>
				<g>
					<path class="st1" d="M402.54,507.96c4,9.36,8.83,18.38,14.29,26.79c-11.23-17.37-19.25-36.87-23.48-53.62
						c0.62,2.49,1.13,5.05,1.92,7.5c0.84,2.44,1.8,5.52,3.11,8.82c0.64,1.65,1.24,3.41,1.95,5.17
						C401.05,504.38,401.79,506.17,402.54,507.96z"/>
				</g>
				<g>
					<g>
						<path class="st1" d="M410.52,520.05c4.78,9.25,9.73,16.9,15.19,24.16c0.01-0.01,0.03-0.01,0.03-0.01
							C420.02,536.57,414.93,528.49,410.52,520.05z M410.52,520.05c4.78,9.25,9.73,16.9,15.19,24.16c0.01-0.01,0.03-0.01,0.03-0.01
							C420.02,536.57,414.93,528.49,410.52,520.05z"/>
					</g>
				</g>
				<g>
					<path class="st1" d="M388.75,384.3c-2.84,10.11-4.92,20.48-5.95,31.05c-1.52,14.69-1.07,28.68,0.62,42.09
						c1.75,13.41,4.81,26.3,9.33,38.79c-6.3-18.42-9.97-37.96-10.14-57.78c-0.15-9.91,0.2-19.1,1.29-27.98
						C384.97,401.6,386.4,392.98,388.75,384.3z"/>
				</g>
				<g>
					<path class="st1" d="M401.21,516c5.2,10.56,11.42,20.62,18.53,29.99c-0.13,0.04-0.27,0.08-0.42,0.13
						c-2.72-3.62-5.33-7.34-7.78-11.16c-7.68-12.1-14-25.1-18.79-38.72l1.9,4.98l0.95,2.51l1.07,2.47c0.72,1.63,1.43,3.28,2.16,4.93
						C399.58,512.78,400.42,514.37,401.21,516z"/>
				</g>
				<g>
					<path class="st1" d="M417.34,541.72c0.99,1.38,2,2.73,3.03,4.09c-0.16,0.04-0.32,0.09-0.5,0.15
						c-13.32-17.73-23.46-37.97-29.59-59.61c0.4,1.38,0.91,2.81,1.33,4.11c1.35,4.42,3.1,8.76,4.77,13.17
						c0.94,2.16,1.89,4.34,2.84,6.53c0.92,2.18,2.06,4.3,3.1,6.46C406.63,525.2,411.61,533.64,417.34,541.72z"/>
				</g>
				<g>
					<path class="st1" d="M416.82,534.75c2.24,3.44,4.58,6.78,7.03,10c-0.01,0-0.04,0-0.07,0.03
						C421.36,541.53,419.03,538.18,416.82,534.75z"/>
				</g>
				<g>
					<path class="st1" d="M414,525.1c-0.67-1.08-1.49-2.8-2.38-4.49c-0.86-1.7-1.76-3.37-2.31-4.53c-0.69-1.38-1.37-2.75-2.06-4.13
						c1.01,2.15,1.91,4.39,3.05,6.49C411.55,520.66,412.68,522.93,414,525.1z"/>
				</g>
				<g>
					<path class="st1" d="M400.17,380.26c-7.29,21.32-10.23,43.31-9.33,64.69c0.88,21.4,5.67,42.22,13.81,61.49
						c0.41,0.93,0.8,1.87,1.24,2.78l1.36,2.72c-1.52-3.16-2.72-6.46-4.04-9.7c-0.69-1.61-1.18-3.29-1.77-4.93
						c-0.56-1.65-1.17-3.29-1.68-4.95c-0.49-1.67-0.98-3.33-1.47-5l-0.74-2.49l-0.62-2.52c-0.41-1.68-0.82-3.35-1.23-5.02
						c-0.4-1.67-0.68-3.36-1.03-5.04c-2.66-13.41-3.81-26.82-3.57-39.66c0.07-5.06,0.35-12.7,1.11-17.72
						c3.22-23.82,10.78-45.85,22.06-65.74c-5.45,9.48-10.1,19.54-13.8,30.18C400.38,379.67,400.28,379.96,400.17,380.26z"/>
				</g>
			</g>
		</g>
		<path class="st1" d="M762.32,426.12c-1.65-22.44-6.87-44.74-16.27-65.17c-10.05-21.75-23.72-41-39.97-57.19
			c-8.12-8.12-16.94-15.41-26.3-21.85c-9.34-6.46-19.2-12.11-29.52-16.91c0.25,0.16,0.36,0.25,0.31,0.28
			c-9.9-4.7-20.3-8.4-31.05-11.34c-1.34-0.36-2.61-0.74-3.89-1.05c-1.27-0.27-2.51-0.52-3.74-0.78c-2.45-0.48-4.78-1.03-7.18-1.34
			c-2.37-0.35-4.76-0.7-7.22-1.07c-2.48-0.25-5.02-0.55-7.74-0.88c-36.81-4.01-73.72,3.11-105.58,19.32
			c-15.93,8.11-30.68,18.4-43.59,30.63l-2.44,2.26l-2.33,2.38c-1.54,1.61-3.11,3.16-4.62,4.8c-2.91,3.35-5.94,6.61-8.62,10.16
			c-2.84,3.42-5.36,7.07-7.95,10.68c-1.29,1.81-2.43,3.72-3.64,5.59c-1.19,1.86-2.41,3.72-3.48,5.68c-1.26,2.47-2.69,4.96-3.97,7.65
			c-1.23,2.69-2.64,5.41-3.89,8.31c0.87-1.96,1.94-3.83,2.95-5.82c1.02-1.96,2.05-3.98,3.27-5.94c-4.82,9.59-9.93,21.26-13.93,34.32
			c-0.25,0.8-0.51,1.62-0.78,2.44c-0.23,0.83-0.44,1.67-0.67,2.51c-0.44,1.67-0.9,3.36-1.35,5.06c-0.87,3.4-1.54,6.9-2.32,10.4
			c-1.25,7.07-2.36,14.28-2.83,21.56c-1.09,14.52-0.48,29.14,1.7,42.5c2.12,13.36,5.59,25.44,9.34,35.28
			c6.1,16.21,14.71,32.25,25.85,47.04c0.24-0.08,0.48-0.16,0.72-0.23c-3.62-4.8-6.99-9.79-10.04-14.7c-0.21-0.31-0.43-0.6-0.63-0.87
			c-0.6-1-1.18-2.02-1.77-3.03c0.71,1.15,1.37,2.21,1.85,2.99c0.17,0.29,0.36,0.6,0.55,0.91c0.92,1.29,2.1,3.2,3.7,5.4
			c1.58,2.21,3.28,4.89,5.41,7.6c0.39,0.54,0.79,1.07,1.21,1.62c0.52-0.16,1.03-0.32,1.54-0.46c-0.25-0.33-0.5-0.67-0.75-1
			c-2.57-3.31-4.86-6.89-7.25-10.42c-1.14-1.81-2.21-3.66-3.32-5.49c-0.55-0.94-1.13-1.84-1.65-2.79l-1.53-2.85
			c-0.99-1.92-2.1-3.78-3-5.76c-0.94-1.96-1.86-3.91-2.8-5.88c-0.9-1.98-1.7-4.01-2.55-6.02c-0.88-2-1.62-4.05-2.36-6.11
			c-1.58-4.07-2.81-8.25-4.11-12.42c-1.1-4.21-2.32-8.39-3.15-12.64c-0.99-4.22-1.61-8.5-2.33-12.72c-0.5-4.25-1.15-8.45-1.39-12.68
			c-0.08-1.3-0.17-2.75-0.28-4.29c-0.07-1.54-0.04-3.18-0.05-4.8c0-1.62-0.03-3.24,0.01-4.78c0.07-1.54,0.13-3,0.19-4.29
			c-0.2,4.54,0.03,8.92,0.15,13.21c0.35,4.27,0.55,8.48,1.18,12.65c0.44,4.18,1.23,8.31,1.96,12.53c0.4,2.1,0.92,4.19,1.38,6.34
			c0.24,1.07,0.44,2.16,0.72,3.23c0.29,1.07,0.58,2.14,0.87,3.24c1.81,7.07,4.31,14.22,7.07,21.43c1.53,3.55,2.93,7.2,4.7,10.72
			c0.87,1.76,1.65,3.58,2.59,5.32l2.81,5.27c3.94,6.95,8.17,13.85,13.08,20.3l0.4,0.54c0.58-0.17,1.15-0.33,1.72-0.5
			c-5.47-7.26-10.41-14.91-15.19-24.16c4.41,8.44,9.5,16.52,15.22,24.15c0.17-0.05,0.35-0.09,0.51-0.13
			c-0.52-0.68-1.05-1.38-1.55-2.08c-7.99-10.96-14.73-22.77-19.92-35.28c-0.04-0.09-0.08-0.17-0.12-0.27l-0.08-0.19l-1.9-4.34
			c-0.66-1.51-1.18-3.08-1.78-4.62c-0.56-1.54-1.17-3.08-1.69-4.65l-1.46-4.73c-0.28-0.91-0.56-1.84-0.84-2.76
			c-0.24-0.95-0.48-1.9-0.74-2.85c-0.47-1.92-0.99-3.86-1.45-5.84c-0.78-3.98-1.69-8.01-2.21-12.13c-0.7-4.07-1-8.2-1.42-12.23
			c-0.15-2.02-0.23-4.03-0.33-6c-0.05-0.99-0.11-1.97-0.16-2.95c0-0.96,0-1.93-0.01-2.88c-0.21,2.55-0.21-5.11-0.32-5.11
			c0.05-7.64,0.5-15.93,1.9-24.41c1.41-8.48,3.38-17.2,6.14-25.69c0.74-2.43,0.94-2.36,1.89-4.8c3-9.98,7.65-21.09,14.04-32.13
			c-1.47,1.72-1.55,1.33-0.56-0.75c0.5-1.03,1.26-2.48,2.26-4.3c1.05-1.78,2.41-3.87,3.95-6.28c0.39-0.6,0.79-1.22,1.21-1.85
			c0.44-0.62,0.9-1.25,1.37-1.9c0.95-1.29,1.94-2.65,2.97-4.07c1-1.43,2.21-2.81,3.39-4.29c1.21-1.46,2.41-3,3.74-4.52
			c5.32-6.04,11.64-12.38,18.68-18.42c7.09-5.99,14.91-11.59,22.94-16.48c7.99-4.96,16.25-9.02,24-12.34
			c15.5-6.69,29-10.08,35.15-12.09c2.63-0.03,0.95,0.76-3.31,2c-4.26,1.19-11.04,3.23-18.61,5.84c-7.52,2.76-15.8,6.19-23.14,9.92
			c-7.32,3.78-13.8,7.57-18.06,10.4c-10.73,6.82-21.57,15.57-31.26,25.7c-9.53,10.08-17.87,21.47-24.45,33.02
			c0.94-1.59,1.9-3.19,2.91-4.78c1.03-1.57,2.09-3.15,3.15-4.73c0.52-0.79,1.06-1.58,1.58-2.38l1.73-2.32
			c1.15-1.54,2.3-3.1,3.47-4.65c1.22-1.51,2.48-3,3.72-4.5c2.44-3.07,5.23-5.86,7.87-8.78c1.37-1.41,2.8-2.76,4.21-4.14l2.1-2.06
			c0.7-0.68,1.46-1.31,2.18-1.97c1.49-1.33,2.97-2.67,4.46-3.99c1.55-1.26,3.11-2.52,4.68-3.79l2.36-1.89l2.47-1.78
			c1.65-1.17,3.27-2.4,4.97-3.54c-1.63,1.11-3.2,2.33-4.82,3.48l-2.44,1.77c-0.8,0.6-1.57,1.26-2.36,1.88
			c-1.57,1.27-3.15,2.55-4.73,3.82c-1.53,1.34-3.06,2.69-4.58,4.05c-11.42,10.48-21.09,22.3-29.08,35.08
			c10.12-15.99,22.68-29.93,36.94-41.63c16.27-13.29,34.84-23.7,55.08-30.42c19.32-6.4,39.02-9.57,58.45-9.57
			c19.4,0.11,38.55,3.04,56.72,9.21c14.89,4.88,28.9,12.27,41.71,21.18c-1.18-0.63-2.32-1.23-3.42-1.82
			c1.98,1.38,4.03,2.67,5.95,4.11c1.92,1.45,3.83,2.89,5.73,4.33c3.7,3.04,7.42,6.02,10.88,9.31c7.02,6.47,13.71,13.41,19.83,21.17
			c1.17,1.35,2.17,2.84,3.27,4.26c6.14,8.15,11.39,16.52,15.82,25.14c4.38,8.63,8,17.47,10.92,26.56c0.67,2.29,1.47,4.54,2.05,6.87
			c0.59,2.32,1.18,4.64,1.78,6.97c0.48,2.36,0.96,4.72,1.45,7.1c0.5,2.37,0.78,4.78,1.18,7.21c1.38,9.69,2,19.71,1.7,30.11
			c-0.5,17.69-4.96,34.27-8.86,51.53c-0.59,2.64-1.18,5.36-0.67,8.01c1.27,6.66,8.54,7.72,12.81,3.46c3.51-3.5,3.36-10.2,4.76-14.66
			c2.02-6.53,3.75-13.14,5.13-19.84c2.04-9.9,3.5-19.62,4.14-30.83c0.07-2.81,0.33-4.22,0.56-5.98c0.11-0.88,0.23-1.86,0.27-3.14
			C762.52,429.82,762.48,428.24,762.32,426.12z M387.06,466.41c2.04,11,4.77,20.51,8.19,30.07c3.46,9.54,7.65,19.11,13.6,29.83
			c-1.14-2-2.37-4.15-3.15-5.49c-4.39-8.35-8.21-17.02-11.39-26.07C391.22,485.66,388.76,476.23,387.06,466.41
			c-0.29-1.67-0.59-3.38-0.88-5.09c-0.38-2.61-0.71-5.88-1.06-9.15c-0.11-2.01-0.21-4.03-0.32-5.9c0.05,0.9,0.12,1.8,0.17,2.69
			c0.05,0.99,0.12,1.98,0.19,2.97l0.32,2.93c0.21,1.94,0.44,3.89,0.66,5.82C386.45,462.6,386.75,464.51,387.06,466.41z
			 M676.46,282.21l-8.44-5.37c-4.85-2.6-9.82-4.84-12.29-6c-9.81-4.74-22.35-10.05-35.47-13.56c-10.48-2.68-23.76-5.69-37.26-6.51
			c-1.35-0.11-2.71-0.12-3.71-0.09c-1.02,0.05-1.7,0.17-1.7,0.27c-2.36-0.11-4.58-0.2-6.73-0.28c-2.13-0.05-4.17,0.04-6.15,0.08
			c-3.95,0.04-7.64,0.48-11.32,0.79c-1.85,0.13-3.67,0.48-5.53,0.71c-1.86,0.27-3.75,0.46-5.69,0.8c-3.89,0.71-8.04,1.33-12.62,2.33
			c2.65-0.46,5.29-0.91,7.97-1.18c-2.65,0.42-5.09,1-7.49,1.57c-2.41,0.56-4.77,1.1-7.17,1.84c-4.84,1.33-9.93,2.93-16.19,5.2
			c-10.1,3.51-17.06,7.54-24.13,11.15c-11.68,6.27-22.7,13.76-32.28,21.91c-9.59,8.13-17.74,16.88-24.13,25.26
			c0.74-1.09,1.89-2.72,3.18-4.22c1.29-1.5,2.59-3,3.43-4.03c4.98-6.15,12.88-14.27,22.54-21.88c9.62-7.66,20.94-14.75,31.62-20.25
			l5.36-2.71l5.47-2.49c0.92-0.42,1.82-0.84,2.75-1.23l2.8-1.13c1.88-0.72,3.72-1.49,5.61-2.18c17.69-6.19,36.34-9.98,55.58-10.68
			c2.4-0.04,4.81-0.23,7.22-0.15c2.43,0.03,4.85,0.07,7.28,0.11c4.86,0.31,9.75,0.56,14.65,1.22c9.79,1.22,19.67,3.08,29.45,5.99
			c7.8,2.34,16.23,5.16,24.31,8.8l3.05,1.31c1.02,0.44,2,0.95,2.99,1.43c1.98,0.96,3.97,1.93,5.92,2.89c1.9,1.05,3.81,2.08,5.67,3.1
			c0.92,0.52,1.86,1.03,2.77,1.53c0.91,0.52,1.78,1.09,2.67,1.62c2.33,1.46,4.72,2.87,6.97,4.45c2.24,1.61,4.46,3.22,6.67,4.81
			c0.16,0.19,0.35,0.4,0.55,0.63C681.92,286.07,679.18,284.16,676.46,282.21z M713.66,315.91c-0.07-0.13-0.16-0.27-0.23-0.4
			c0.09,0.11,0.19,0.21,0.28,0.31C713.69,315.83,713.69,315.87,713.66,315.91z M753.27,437.41c0.05-0.42,0.11-0.84,0.15-1.29
			c0.09,1.43,0.17,2.85,0.25,4.27c0,1.41,0.01,2.81,0.03,4.19C753.49,442.59,753.37,440.01,753.27,437.41z M754.51,448.23
			c-0.05,0-0.11-0.09-0.17-0.23c0.4-11.82-0.42-23.82-2.12-35.04c-1.63-11.21-4.26-21.61-6.86-30.47
			c3.54,10.71,6.27,22.15,7.81,33.44C754.71,427.22,755.19,438.32,754.51,448.23z"/>
	</g>
</g>
</svg>
